#!OML:ASF F:\VICON\USERDATA\INSTALL\rory3\rory3.ASF
:FULLY-SPECIFIED
:DEGREES
993
root 0.0468804 17.9454 3.61982 -0.65521 164.123 -1.35101
lowerback 20.8153 1.02504 -2.32275
upperback 1.34565 1.6341 4.08956
thorax -10.4025 1.15689 5.36191
lowerneck -10.0512 1.87752 -0.696894
upperneck 16.4343 4.09909 -5.1395
head 6.77151 1.70117 -1.1506
rclavicle 9.74045e-015 3.81667e-014
rhumerus -12.573 -5.45803 -60.7015
rradius 83.9372
rwrist 22.0779
rhand -14.2949 11.147
rfingers 7.12502
rthumb 11.8448 -18.498
lclavicle 9.74045e-015 3.81667e-014
lhumerus -42.4817 4.13915 80.4194
lradius 51.8693
lwrist 11.5356
lhand -12.3221 51.8019
lfingers 7.12502
lthumb 13.7466 81.3278
rfemur -16.7241 -1.44029 20.2246
rtibia 45.6293
rfoot -20.7018 4.21818
rtoes -2.8621
lfemur -12.6346 -9.87036 -24.6048
ltibia 31.7395
lfoot -14.2864 2.08086
ltoes -9.1632
994
root 0.050143 17.9422 3.62242 -0.588055 164.363 -1.24976
lowerback 20.756 0.981228 -2.22245
upperback 1.2885 1.6056 4.13893
thorax -10.4298 1.1413 5.36822
lowerneck -10.3128 1.77299 -0.662964
upperneck 16.7367 4.00458 -5.22598
head 6.91528 1.64404 -1.1888
rclavicle 1.21259e-014 -3.65764e-014
rhumerus -12.8382 -4.80818 -61.3735
rradius 82.2147
rwrist 23.1405
rhand -15.1 11.5309
rfingers 7.12502
rthumb 11.0683 -18.1573
lclavicle 1.21259e-014 -3.65764e-014
lhumerus -42.0521 4.01253 80.5977
lradius 52.3388
lwrist 11.6544
lhand -12.5854 51.1748
lfingers 7.12502
lthumb 13.4928 80.7177
rfemur -16.2659 -0.937027 20.4007
rtibia 44.9479
rfoot -20.5809 3.99059
rtoes 0.2423
lfemur -12.8185 -10.0919 -24.4832
ltibia 31.9858
lfoot -14.4776 2.13067
ltoes -9.95327
995
root 0.0603564 17.9434 3.63151 -0.431291 164.575 -0.929248
lowerback 20.6291 0.952717 -1.98183
upperback 1.27202 1.64177 4.23878
thorax -10.3794 1.15171 5.32863
lowerneck -10.4553 1.63066 -0.6845
upperneck 16.7885 3.811 -5.19789
head 6.95124 1.54707 -1.19265
rclavicle -1.86858e-014 -4.29375e-014
rhumerus -13.3453 -4.10385 -62.0036
rradius 80.4931
rwrist 24.2007
rhand -15.6099 11.4488
rfingers 7.12502
rthumb 10.5765 -18.2651
lclavicle -1.86858e-014 -4.29375e-014
lhumerus -41.6352 3.71285 80.8492
lradius 53.0252
lwrist 11.758
lhand -12.9125 50.7106
lfingers 7.12502
lthumb 13.1776 80.2742
rfemur -15.8476 -0.302458 20.8774
rtibia 44.2245
rfoot -20.5901 3.44454
rtoes 2.01194
lfemur -13.0096 -10.0884 -24.0606
ltibia 32.1153
lfoot -14.5517 2.0307
ltoes -10.2752
996
root 0.0703114 17.9432 3.6355 -0.404393 164.698 -0.765981
lowerback 20.5162 0.989188 -1.85922
upperback 1.30664 1.72734 4.28016
thorax -10.2857 1.18748 5.2767
lowerneck -10.6438 1.46094 -0.877685
upperneck 16.9596 3.59261 -5.00238
head 7.02766 1.43994 -1.11604
rclavicle 5.76476e-015 9.54166e-014
rhumerus -13.7257 -3.5349 -62.7514
rradius 78.2907
rwrist 25.0712
rhand -16.5008 11.7338
rfingers 7.12502
rthumb 9.71698 -18.0221
lclavicle 5.76476e-015 9.54166e-014
lhumerus -41.0756 3.3696 81.154
lradius 53.5834
lwrist 12.0509
lhand -13.3433 50.4828
lfingers 7.12502
lthumb 12.7623 80.0727
rfemur -15.3461 0.214157 21.1652
rtibia 43.49
rfoot -20.4389 2.87239
rtoes 3.15895
lfemur -13.0134 -10.1077 -23.8543
ltibia 32.2174
lfoot -14.6239 1.98804
ltoes -10.2208
997
root 0.0819126 17.9406 3.6418 -0.498168 164.817 -0.652598
lowerback 20.6724 1.02057 -1.84038
upperback 1.28303 1.78266 4.31942
thorax -10.4059 1.21831 5.29463
lowerneck -10.4626 1.37119 -1.01059
upperneck 16.7889 3.45903 -4.92158
head 6.93397 1.37996 -1.08201
rclavicle -5.86415e-014 -8.90555e-014
rhumerus -14.1289 -3.01559 -63.5762
rradius 75.7945
rwrist 25.913
rhand -17.8479 12.1105
rfingers 7.12502
rthumb 8.41716 -17.7018
lclavicle -5.86415e-014 -8.90555e-014
lhumerus -40.667 3.09192 81.3726
lradius 54.1451
lwrist 12.3616
lhand -13.0575 51.2419
lfingers 7.12502
lthumb 13.0377 80.8144
rfemur -14.7108 0.855187 21.4112
rtibia 42.7571
rfoot -20.3133 2.52489
rtoes 4.68808
lfemur -12.92 -10.1378 -23.7024
ltibia 32.2872
lfoot -14.6469 1.93876
ltoes -10.4458
998
root 0.0975672 17.942 3.64897 -0.461841 164.955 -0.480856
lowerback 20.6868 1.0595 -1.80819
upperback 1.22046 1.85483 4.40947
thorax -10.495 1.2571 5.35691
lowerneck -10.308 1.24412 -1.44039
upperneck 16.8131 3.3004 -4.57737
head 6.89933 1.31051 -0.91552
rclavicle 7.39479e-014 2.54444e-014
rhumerus -14.6477 -2.52731 -64.2837
rradius 73.187
rwrist 26.72
rhand -19.1368 12.2933
rfingers 7.12502
rthumb 7.17309 -17.5652
lclavicle 7.39479e-014 2.54444e-014
lhumerus -40.4919 2.83478 81.7099
lradius 54.8559
lwrist 12.4155
lhand -13.0896 51.8363
lfingers 7.12502
lthumb 13.0068 81.4108
rfemur -14.2474 1.51465 21.7639
rtibia 42.0382
rfoot -20.3601 2.17916
rtoes 5.69421
lfemur -12.9687 -10.2146 -23.4454
ltibia 32.2871
lfoot -14.628 1.90009
ltoes -11.0298
999
root 0.110791 17.9449 3.64944 -0.502387 165.161 -0.590342
lowerback 20.4533 1.08693 -1.86139
upperback 1.2616 1.86475 4.34559
thorax -10.3193 1.25637 5.31139
lowerneck -10.4901 1.1474 -1.80105
upperneck 17.1771 3.20098 -4.19257
head 7.0361 1.26679 -0.738529
rclavicle -3.57812e-015 -7.95139e-015
rhumerus -14.902 -2.29449 -64.9442
rradius 70.191
rwrist 27.4856
rhand -20.2163 12.2473
rfingers 7.12502
rthumb 6.13095 -17.644
lclavicle -3.57812e-015 -7.95139e-015
lhumerus -40.1676 2.38588 82.0119
lradius 55.4526
lwrist 12.7586
lhand -14.0307 51.4712
lfingers 7.12502
lthumb 12.0995 81.1013
rfemur -13.7751 1.85271 21.7657
rtibia 41.3118
rfoot -20.4142 1.98704
rtoes 7.23683
lfemur -12.9578 -10.4856 -23.5321
ltibia 32.2673
lfoot -14.6995 1.96239
ltoes -11.2002
1000
root 0.117847 17.9475 3.64909 -0.517277 165.446 -0.811186
lowerback 20.2753 1.08844 -2.00125
upperback 1.26587 1.81931 4.28139
thorax -10.2124 1.23426 5.33356
lowerneck -10.3909 1.13332 -2.01596
upperneck 16.9927 3.19042 -4.13292
head 6.95539 1.25736 -0.686062
rclavicle 5.76476e-015 6.20208e-014
rhumerus -14.9941 -2.35439 -65.5168
rradius 67.0533
rwrist 28.2603
rhand -21.0508 12.1786
rfingers 7.12502
rthumb 5.32528 -17.7345
lclavicle 5.76476e-015 6.20208e-014
lhumerus -39.9013 2.04546 82.3586
lradius 56.0934
lwrist 13.08
lhand -14.5652 51.3946
lfingers 7.12502
lthumb 11.5841 81.0544
rfemur -13.3135 2.01945 21.5853
rtibia 40.6068
rfoot -20.5256 1.68959
rtoes 7.5669
lfemur -12.9904 -10.9311 -23.7704
ltibia 32.2182
lfoot -14.7775 2.14251
ltoes -11.0937
1001
root 0.125888 17.9513 3.65784 -0.468039 165.771 -0.811543
lowerback 20.3231 1.05835 -1.98808
upperback 1.14556 1.77559 4.26979
thorax -10.3682 1.21404 5.32852
lowerneck -10.1764 1.05403 -2.06589
upperneck 16.9335 3.08335 -4.11773
head 6.89627 1.21142 -0.684043
rclavicle 7.15625e-015 2.06736e-014
rhumerus -15.0554 -2.81857 -66.0715
rradius 63.5536
rwrist 29.1527
rhand -21.1435 12.7675
rfingers 7.12502
rthumb 5.23576 -17.1478
lclavicle 7.15625e-015 2.06736e-014
lhumerus -39.8493 1.81073 82.643
lradius 56.8304
lwrist 13.0932
lhand -14.4943 51.5604
lfingers 7.12502
lthumb 11.6524 81.2164
rfemur -12.9404 2.28277 21.6755
rtibia 39.935
rfoot -20.6286 1.18571
rtoes 8.14831
lfemur -13.066 -11.2958 -23.7213
ltibia 32.1352
lfoot -14.7518 2.08603
ltoes -9.70242
1002
root 0.132443 17.9544 3.66801 -0.289323 166.027 -0.757005
lowerback 20.2767 1.06103 -1.91539
upperback 0.970343 1.79034 4.29257
thorax -10.54 1.21938 5.31116
lowerneck -10.0054 0.965288 -2.0566
upperneck 17.0776 3.00477 -4.2178
head 6.91378 1.17445 -0.724756
rclavicle 2.78299e-014 3.33958e-014
rhumerus -14.7611 -3.7937 -66.6201
rradius 59.5613
rwrist 30.2877
rhand -20.2189 13.5798
rfingers 7.12502
rthumb 6.1285 -16.3115
lclavicle 2.78299e-014 3.33958e-014
lhumerus -39.7832 1.44202 82.9831
lradius 57.4362
lwrist 13.159
lhand -14.8553 50.8906
lfingers 7.12502
lthumb 11.3044 80.5659
rfemur -12.7893 2.4965 21.8035
rtibia 39.2723
rfoot -20.817 0.975656
rtoes 9.20368
lfemur -13.2475 -11.3536 -23.6072
ltibia 32.1013
lfoot -14.6559 2.01281
ltoes -9.47431
1003
root 0.138641 17.9516 3.67466 -0.313821 166.204 -0.806503
lowerback 20.301 1.12236 -1.90112
upperback 0.927516 1.86598 4.25061
thorax -10.6081 1.25286 5.23451
lowerneck -9.81558 0.865045 -2.00129
upperneck 16.9001 2.86327 -4.33959
head 6.82384 1.10693 -0.787018
rclavicle 3.57812e-014 8.11041e-014
rhumerus -14.3439 -5.15293 -67.1589
rradius 55.6946
rwrist 31.0231
rhand -18.8496 13.674
rfingers 7.12502
rthumb 7.45031 -16.1748
lclavicle 3.57812e-014 8.11041e-014
lhumerus -39.5879 1.04248 83.3133
lradius 58.0585
lwrist 13.0153
lhand -14.9848 50.2192
lfingers 7.12502
lthumb 11.1794 79.9013
rfemur -12.3766 2.69902 21.7878
rtibia 38.6265
rfoot -21.0349 1.00642
rtoes 10.8934
lfemur -13.2162 -11.4702 -23.6627
ltibia 32.1145
lfoot -14.6583 2.12022
ltoes -9.20489
